<svg width="396" height="46" viewBox="0 0 396 46" fill="none" xmlns="http://www.w3.org/2000/svg">
<path d="M171.237 45.3567C165.273 45.3567 160.356 43.6707 156.509 40.2914C152.662 36.927 150.731 32.6936 150.731 27.5839C150.731 22.4667 152.647 18.2258 156.479 14.8911C160.327 11.5564 165.243 9.89275 171.237 9.89275C177.282 9.89275 182.229 11.5564 186.076 14.8763C189.908 18.1961 191.824 22.437 191.824 27.5839C191.824 32.7159 189.893 36.9493 186.046 40.3137C182.199 43.6782 177.268 45.3567 171.237 45.3567ZM171.237 40.4548C175.715 40.4548 179.377 39.2517 182.199 36.823C185.029 34.4093 186.432 31.3271 186.432 27.5913C186.432 23.8778 185.014 20.8104 182.169 18.367C179.325 15.9383 175.678 14.7203 171.229 14.7203C166.781 14.7203 163.149 15.9235 160.327 18.3521C157.512 20.7659 156.108 23.8481 156.108 27.5913C156.108 31.3271 157.519 34.4167 160.327 36.823C163.156 39.2442 166.788 40.4548 171.237 40.4548ZM141.581 44.3094V10.6949H146.891V44.3094H141.581ZM108.553 44.3094V10.7691H111.301L132.602 34.335V10.7691H137.749V44.3094H135.001L113.7 20.8253V44.3094H108.553ZM81.7564 44.3094H76.2084L93.2757 10.7691H96.5732L113.774 44.3094H108.159C103.763 35.7016 99.3361 27.1234 94.969 18.5081L81.7564 44.3094ZM51.9221 29.6783V44.3169H46.6935V10.8583H69.7469C73.1782 10.8583 75.8593 11.6901 77.8052 13.3389C79.7437 14.9877 80.7092 17.2826 80.7092 20.2163C80.7092 22.5855 79.9442 24.6502 78.4068 26.3955C76.8768 28.1409 74.879 29.2104 72.4132 29.5966L81.7564 44.3169H76.0599L66.5459 29.6783H51.9221ZM51.9221 24.769H69.7469C71.5591 24.769 72.9405 24.3828 73.8912 23.5881C74.8418 22.7934 75.3246 21.672 75.3246 20.194C75.3246 18.7309 74.8418 17.6094 73.8912 16.8444C72.9405 16.0646 71.5591 15.6784 69.7469 15.6784H51.9221V24.769ZM38.0411 30.4804L42.3859 33.6963C40.4029 37.4618 37.6697 40.3731 34.2087 42.3933C30.7626 44.4209 26.8337 45.4384 22.4295 45.4384C15.9383 45.4384 10.576 43.292 6.34266 39.014C2.11669 34.7435 0 29.3144 0 22.734C0 16.1389 2.11669 10.6949 6.35008 6.42435C10.5983 2.1464 15.9458 0 22.4072 0C26.4178 0 30.0719 0.868954 33.3695 2.62915C36.6671 4.38192 39.3482 6.89225 41.4129 10.1378L36.8973 13.3537C35.5456 10.7691 33.57 8.72672 31.0151 7.2636C28.4528 5.80048 25.586 5.0652 22.4221 5.0652C17.5574 5.0652 13.5246 6.74371 10.331 10.0784C7.14477 13.4131 5.54797 17.6391 5.54797 22.734C5.54797 27.8438 7.14477 32.0623 10.331 35.3896C13.5246 38.7169 17.5574 40.3731 22.4221 40.3731C25.8237 40.3731 28.839 39.5265 31.483 37.8554C34.127 36.1769 36.3106 33.726 38.0411 30.4804Z" fill="white"/>
<path d="M390.845 9.4177H391.706C392.115 9.4177 392.397 9.35828 392.546 9.23202C392.694 9.11319 392.768 8.9498 392.768 8.74927C392.768 8.62302 392.731 8.50418 392.657 8.4002C392.583 8.29623 392.486 8.22196 392.36 8.16997C392.234 8.11798 391.996 8.0957 391.647 8.0957H390.837V9.4177H390.845ZM390.132 11.8835V7.50154H391.639C392.159 7.50154 392.531 7.5461 392.761 7.62037C392.991 7.70206 393.177 7.84318 393.311 8.04371C393.444 8.24424 393.518 8.45962 393.518 8.68243C393.518 9.0018 393.407 9.28401 393.177 9.52168C392.947 9.75934 392.642 9.89303 392.263 9.92274C392.419 9.98958 392.546 10.0639 392.635 10.153C392.813 10.3238 393.028 10.6134 393.281 11.0219L393.816 11.876H392.954L392.56 11.1853C392.256 10.6432 392.003 10.3015 391.818 10.1678C391.691 10.0713 391.498 10.0193 391.253 10.0193H390.837V11.876H390.132V11.8835ZM391.929 6.23152C391.357 6.23152 390.793 6.38006 390.258 6.66971C389.716 6.95937 389.293 7.3827 388.988 7.9323C388.684 8.4819 388.528 9.04636 388.528 9.63309C388.528 10.2198 388.676 10.7843 388.981 11.319C389.278 11.8538 389.701 12.2771 390.243 12.5816C390.785 12.8787 391.35 13.0347 391.937 13.0347C392.523 13.0347 393.088 12.8861 393.63 12.5816C394.172 12.2845 394.588 11.8612 394.893 11.319C395.19 10.7843 395.338 10.2198 395.338 9.63309C395.338 9.04636 395.182 8.47447 394.878 7.9323C394.573 7.39013 394.15 6.96679 393.608 6.66971C393.051 6.38006 392.494 6.23152 391.929 6.23152ZM391.929 5.55566C392.612 5.55566 393.281 5.73392 393.934 6.08299C394.588 6.43205 395.093 6.93709 395.457 7.59066C395.821 8.24424 395.999 8.92752 395.999 9.63309C395.999 10.3387 395.821 11.0145 395.464 11.6607C395.108 12.3068 394.603 12.8118 393.957 13.1683C393.311 13.5248 392.635 13.7031 391.929 13.7031C391.224 13.7031 390.548 13.5248 389.902 13.1683C389.255 12.8118 388.75 12.3068 388.394 11.6607C388.037 11.0145 387.852 10.3387 387.852 9.63309C387.852 8.92752 388.037 8.24424 388.401 7.59066C388.765 6.93709 389.278 6.43205 389.931 6.08299C390.57 5.73392 391.238 5.55566 391.929 5.55566ZM241.332 44.3097H235.784L252.851 10.7768H256.149L273.35 44.3097H267.735C263.338 35.7093 258.912 27.1311 254.545 18.5083L241.332 44.3097ZM356.837 28.713V44.3172H351.608V10.7843H356.837V23.8112H380.402V10.7843H385.631V44.3172H380.402V28.713H356.837ZM342.792 36.1103C340.891 39.1108 338.381 41.4058 335.269 42.9877C332.172 44.5697 328.636 45.3569 324.678 45.3569C318.796 45.3569 313.938 43.6933 310.121 40.3586C306.311 37.0239 304.409 32.783 304.409 27.6658C304.409 22.5338 306.311 18.293 310.121 14.9285C313.938 11.5641 318.796 9.8856 324.678 9.8856C328.347 9.8856 331.674 10.5689 334.66 11.9503C337.653 13.3169 340.044 15.2627 341.886 17.7656L337.719 20.6622C336.338 18.7609 334.518 17.2829 332.253 16.2505C329.988 15.2182 327.47 14.7057 324.693 14.7057C320.392 14.7057 316.835 15.9238 314.02 18.3747C311.205 20.8181 309.794 23.8855 309.794 27.5693C309.794 31.2531 311.205 34.3278 314.027 36.7639C316.857 39.2148 320.407 40.4328 324.685 40.4328C327.663 40.4328 330.3 39.8461 332.58 38.6801C334.86 37.4992 336.858 35.6796 338.588 33.1989L342.792 36.1103ZM284.869 44.3097V15.441H270.713V10.7768H304.253V15.441H290.098V44.3172H284.869V44.3097ZM233.348 36.1103C231.447 39.1108 228.936 41.4058 225.832 42.9877C222.735 44.5697 219.2 45.3569 215.241 45.3569C209.359 45.3569 204.501 43.6933 200.684 40.3586C196.874 37.0239 194.973 32.783 194.973 27.6658C194.973 22.5338 196.874 18.293 200.684 14.9285C204.501 11.5641 209.359 9.8856 215.241 9.8856C218.917 9.8856 222.237 10.5689 225.223 11.9503C228.216 13.3169 230.615 15.2627 232.449 17.7656L228.283 20.6622C226.901 18.7609 225.082 17.2829 222.816 16.2505C220.551 15.2182 218.033 14.7057 215.256 14.7057C210.956 14.7057 207.398 15.9238 204.583 18.3747C201.768 20.8181 200.365 23.8855 200.365 27.5693C200.365 31.2531 201.776 34.3278 204.598 36.7639C207.428 39.2148 210.978 40.4328 215.256 40.4328C218.234 40.4328 220.871 39.8461 223.151 38.6801C225.431 37.4992 227.429 35.6796 229.152 33.1989L233.348 36.1103Z" fill="white"/>
</svg>
