<svg width="344" height="57" viewBox="0 0 344 57" fill="none" xmlns="http://www.w3.org/2000/svg">
<path d="M187.144 44.0363C182.993 44.0363 179.571 42.8628 176.893 40.5106C174.215 38.1688 172.871 35.2221 172.871 31.6654C172.871 28.1035 174.205 25.1516 176.872 22.8305C179.55 20.5093 182.972 19.3513 187.144 19.3513C191.352 19.3513 194.795 20.5093 197.473 22.8201C200.141 25.1309 201.475 28.0828 201.475 31.6654C201.475 35.2376 200.13 38.1843 197.453 40.5261C194.775 42.868 191.342 44.0363 187.144 44.0363ZM187.144 40.6243C190.262 40.6243 192.81 39.7869 194.775 38.0964C196.744 36.4163 197.721 34.2709 197.721 31.6705C197.721 29.0857 196.734 26.9507 194.754 25.2498C192.774 23.5594 190.236 22.7115 187.139 22.7115C184.043 22.7115 181.515 23.549 179.55 25.2395C177.591 26.9196 176.614 29.065 176.614 31.6705C176.614 34.2709 177.596 36.4214 179.55 38.0964C181.52 39.7817 184.048 40.6243 187.144 40.6243ZM166.502 43.3074V19.9096H170.198V43.3074H166.502ZM143.513 43.3074V19.9613H145.425L160.252 36.3646V19.9613H163.834V43.3074H161.922L147.095 26.961V43.3074H143.513ZM124.861 43.3074H120.999L132.879 19.9613H135.174L147.147 43.3074H143.239C140.178 37.3158 137.097 31.3448 134.057 25.3481L124.861 43.3074ZM104.094 33.1232V43.3126H100.455V20.0233H116.501C118.89 20.0233 120.756 20.6023 122.11 21.75C123.46 22.8977 124.132 24.4951 124.132 26.5371C124.132 28.1862 123.599 29.6234 122.529 30.8382C121.464 32.0531 120.073 32.7975 118.357 33.0663L124.861 43.3126H120.895L114.273 33.1232H104.094ZM104.094 29.7061H116.501C117.763 29.7061 118.724 29.4373 119.386 28.8841C120.048 28.3309 120.384 27.5503 120.384 26.5216C120.384 25.5032 120.048 24.7225 119.386 24.1901C118.724 23.6473 117.763 23.3784 116.501 23.3784H104.094V29.7061ZM94.432 33.6815L97.4563 35.92C96.076 38.541 94.1735 40.5675 91.7645 41.9736C89.3658 43.3849 86.631 44.0932 83.5654 44.0932C79.0472 44.0932 75.3147 42.5992 72.368 39.6214C69.4265 36.6489 67.9531 32.8699 67.9531 28.2896C67.9531 23.699 69.4265 19.9096 72.3732 16.9371C75.3302 13.9594 79.0523 12.4653 83.5499 12.4653C86.3415 12.4653 88.885 13.0702 91.1803 14.2954C93.4756 15.5154 95.3419 17.2628 96.779 19.5219L93.6359 21.7603C92.695 19.9613 91.3199 18.5397 89.5415 17.5212C87.758 16.5028 85.7625 15.991 83.5603 15.991C80.1742 15.991 77.367 17.1594 75.1441 19.4805C72.9263 21.8017 71.8148 24.7432 71.8148 28.2896C71.8148 31.8463 72.9263 34.7827 75.1441 37.0987C77.367 39.4147 80.1742 40.5675 83.5603 40.5675C85.928 40.5675 88.0268 39.9781 89.8672 38.815C91.7076 37.6466 93.2275 35.9407 94.432 33.6815Z" fill="white"/>
<path d="M340.005 19.0207H340.605C340.889 19.0207 341.085 18.9794 341.189 18.8915C341.292 18.8088 341.344 18.695 341.344 18.5555C341.344 18.4676 341.318 18.3849 341.266 18.3125C341.215 18.2401 341.147 18.1884 341.059 18.1522C340.972 18.116 340.806 18.1005 340.563 18.1005H340V19.0207H340.005ZM339.509 20.7371V17.687H340.558C340.92 17.687 341.178 17.718 341.339 17.7697C341.499 17.8265 341.628 17.9248 341.721 18.0644C341.814 18.2039 341.866 18.3539 341.866 18.5089C341.866 18.7312 341.788 18.9277 341.628 19.0931C341.468 19.2585 341.256 19.3516 340.992 19.3723C341.101 19.4188 341.189 19.4705 341.251 19.5325C341.375 19.6514 341.525 19.853 341.701 20.1374L342.073 20.7319H341.473L341.199 20.2511C340.987 19.8737 340.811 19.6359 340.682 19.5429C340.594 19.4757 340.46 19.4395 340.289 19.4395H340V20.7319H339.509V20.7371ZM340.76 16.803C340.362 16.803 339.969 16.9063 339.596 17.108C339.219 17.3096 338.924 17.6042 338.712 17.9868C338.501 18.3694 338.392 18.7623 338.392 19.1707C338.392 19.5791 338.495 19.9719 338.707 20.3442C338.914 20.7164 339.209 21.011 339.586 21.223C339.964 21.4298 340.356 21.5383 340.765 21.5383C341.173 21.5383 341.566 21.435 341.943 21.223C342.321 21.0162 342.61 20.7215 342.822 20.3442C343.029 19.9719 343.133 19.5791 343.133 19.1707C343.133 18.7623 343.024 18.3642 342.812 17.9868C342.6 17.6094 342.305 17.3148 341.928 17.108C341.54 16.9063 341.153 16.803 340.76 16.803ZM340.76 16.3325C341.235 16.3325 341.701 16.4566 342.155 16.6996C342.61 16.9425 342.962 17.2941 343.215 17.749C343.469 18.2039 343.593 18.6795 343.593 19.1707C343.593 19.6618 343.469 20.1322 343.22 20.582C342.972 21.0317 342.621 21.3833 342.171 21.6314C341.721 21.8795 341.251 22.0036 340.76 22.0036C340.269 22.0036 339.798 21.8795 339.348 21.6314C338.899 21.3833 338.547 21.0317 338.299 20.582C338.051 20.1322 337.921 19.6618 337.921 19.1707C337.921 18.6795 338.051 18.2039 338.304 17.749C338.557 17.2941 338.914 16.9425 339.369 16.6996C339.814 16.4566 340.279 16.3325 340.76 16.3325ZM235.935 43.3077H232.073L243.953 19.9668H246.248L258.221 43.3077H254.313C251.253 37.3212 248.171 31.3503 245.132 25.3484L235.935 43.3077ZM316.333 32.4515V43.3129H312.694V19.9719H316.333V29.0395H332.736V19.9719H336.376V43.3129H332.736V32.4515H316.333ZM306.557 37.6004C305.234 39.689 303.487 41.2864 301.32 42.3875C299.165 43.4886 296.704 44.0366 293.949 44.0366C289.854 44.0366 286.473 42.8786 283.816 40.5575C281.164 38.2363 279.841 35.2844 279.841 31.7225C279.841 28.1503 281.164 25.1985 283.816 22.8566C286.473 20.5148 289.854 19.3464 293.949 19.3464C296.502 19.3464 298.818 19.822 300.897 20.7836C302.98 21.7348 304.645 23.0892 305.927 24.8314L303.026 26.8476C302.065 25.5241 300.798 24.4954 299.222 23.7768C297.645 23.0582 295.892 22.7015 293.959 22.7015C290.966 22.7015 288.489 23.5493 286.53 25.2553C284.571 26.9561 283.589 29.0912 283.589 31.6553C283.589 34.2195 284.571 36.3597 286.535 38.0553C288.505 39.7613 290.976 40.6091 293.954 40.6091C296.027 40.6091 297.862 40.2007 299.449 39.3891C301.036 38.5671 302.427 37.3006 303.631 35.5739L306.557 37.6004ZM266.239 43.3077V23.2133H256.386V19.9668H279.732V23.2133H269.879V43.3129H266.239V43.3077ZM230.378 37.6004C229.054 39.689 227.307 41.2864 225.146 42.3875C222.99 43.4886 220.529 44.0366 217.774 44.0366C213.68 44.0366 210.299 42.8786 207.641 40.5575C204.989 38.2363 203.666 35.2844 203.666 31.7225C203.666 28.1503 204.989 25.1985 207.641 22.8566C210.299 20.5148 213.68 19.3464 217.774 19.3464C220.333 19.3464 222.644 19.822 224.722 20.7836C226.805 21.7348 228.475 23.0892 229.752 24.8314L226.852 26.8476C225.89 25.5241 224.624 24.4954 223.047 23.7768C221.47 23.0582 219.718 22.7015 217.784 22.7015C214.791 22.7015 212.315 23.5493 210.356 25.2553C208.396 26.9561 207.419 29.0912 207.419 31.6553C207.419 34.2195 208.401 36.3597 210.366 38.0553C212.336 39.7613 214.807 40.6091 217.784 40.6091C219.857 40.6091 221.693 40.2007 223.28 39.3891C224.867 38.5671 226.257 37.3006 227.457 35.5739L230.378 37.6004Z" fill="white"/>
<path fill-rule="evenodd" clip-rule="evenodd" d="M32.088 7.02822C33.2136 7.02268 34.123 6.10499 34.1147 4.97937C34.1091 3.85375 33.1914 2.94438 32.0658 2.95269C30.9402 2.95824 30.0308 3.87593 30.0391 5.00155C30.0447 6.12717 30.9624 7.03377 32.088 7.02822Z" fill="white"/>
<path fill-rule="evenodd" clip-rule="evenodd" d="M12.1569 21.3117C9.81414 23.8457 8.25601 27.0923 7.83737 30.6715C7.30228 35.2378 8.66911 39.5906 11.3113 42.9314C13.9534 46.275 17.8709 48.6094 22.4372 49.1445C26.1689 49.5825 29.8175 48.7369 32.8839 46.9127C35.7506 45.2048 38.1072 42.6403 39.5461 39.4603L35.124 38.2154C34.0649 40.2476 32.4763 41.8973 30.5772 43.0256C28.3481 44.3537 25.6893 44.9636 22.9612 44.6448C19.637 44.2566 16.7841 42.5543 14.86 40.1229C12.9359 37.6886 11.9406 34.5225 12.3315 31.1955C12.6393 28.57 13.7677 26.2023 15.4644 24.3669C17.164 22.5288 19.4374 21.2146 22.0241 20.7073L21.1535 16.2769C17.6131 16.9783 14.4941 18.7832 12.1569 21.3117Z" fill="white"/>
<path fill-rule="evenodd" clip-rule="evenodd" d="M34.7636 49.6272C31.0817 51.8175 26.6957 52.8294 22.2043 52.3027C16.7176 51.6595 12.0127 48.8537 8.84099 44.8392C5.66651 40.8246 4.02521 35.5985 4.66842 30.1118C5.17578 25.7868 7.04166 21.8803 9.84185 18.8528C12.6476 15.817 16.3932 13.6489 20.66 12.8088L19.7895 8.37842C14.5689 9.407 9.97493 12.0658 6.53152 15.7892C3.0798 19.5182 0.786964 24.3063 0.168703 29.5823C-0.618679 36.3083 1.39413 42.7182 5.28668 47.6449C9.17923 52.5716 14.9515 56.0095 21.6775 56.7996C27.1753 57.4428 32.5512 56.2008 37.0703 53.5115C41.5617 50.8388 45.1992 46.7383 47.2647 41.637L42.8786 40.4005C41.168 44.3512 38.2874 47.5285 34.7636 49.6272Z" fill="white"/>
<path fill-rule="evenodd" clip-rule="evenodd" d="M60.2454 20.9211C60.2315 20.8601 60.2038 20.8019 60.1678 20.7492L56.7715 16.2467C57.4369 12.7395 57.6199 11.6388 56.0174 8.28969C54.6672 5.02095 51.221 1.26426 42.4988 1.54427C42.2909 0.657084 41.4924 -0.00276377 40.5414 8.70421e-06C39.438 0.00555365 38.5453 0.906607 38.5508 2.01005C38.5564 3.11349 39.4574 4.00623 40.5609 4.00068C40.9656 3.99791 41.3399 3.87592 41.6532 3.66799C42.3741 4.25298 43.1337 5.27879 43.8046 6.64839C43.5524 6.84801 43.3583 7.11971 43.2474 7.43023C41.9887 7.37201 40.8797 7.41082 40.0868 7.44132C40.0369 7.44409 39.987 7.44409 39.937 7.44686C39.7513 6.87296 39.219 6.45432 38.5813 6.45709C37.7967 6.45986 37.1646 7.10031 37.1674 7.88491C37.1701 8.66952 37.8106 9.30165 38.5952 9.29887C39.219 9.2961 39.7402 8.88855 39.9287 8.32851C39.9897 8.32574 40.0479 8.32574 40.1173 8.32296C40.8825 8.29524 41.9554 8.25642 43.1753 8.31187C43.2418 8.6723 43.4193 8.9939 43.6743 9.24065C42.1412 10.1944 40.8686 11.3505 39.9509 12.6231C39.6238 12.3957 39.2273 12.2599 38.7976 12.2626C37.6941 12.2682 36.8014 13.1692 36.8069 14.2727C36.8125 15.2985 37.586 16.1358 38.5813 16.2495C38.6146 19.033 40.8631 22.4598 44.068 25.8283C42.9701 28.5232 41.2567 31.3151 38.6395 33.9517C38.3512 33.6994 37.9741 33.5469 37.561 33.5497C36.6572 33.5552 35.9308 34.2899 35.9336 35.1937C35.9391 36.0976 36.6738 36.824 37.5777 36.8212C37.9714 36.8184 38.3318 36.677 38.6118 36.4469L46.0947 38.4292C46.103 39.3303 46.8377 40.0539 47.7388 40.0511C48.6426 40.0456 49.369 39.3109 49.3662 38.407C49.3634 37.7611 48.9836 37.2038 48.4374 36.9432C48.4569 35.6678 48.7812 34.606 49.3995 33.8657C49.9734 33.1754 50.7913 32.7983 51.7034 32.7983C51.709 32.7983 51.7145 32.7983 51.72 32.7983H51.8309C53.816 32.8122 55.8704 32.8205 56.8131 31.5646C57.3482 30.8548 57.448 29.854 57.1153 28.5121C57.703 28.2404 58.0884 27.8245 58.1938 27.3283C58.2603 27.015 58.2381 26.5714 57.8777 26.064L58.5681 25.8283C58.7094 25.7812 58.8176 25.6648 58.8536 25.5206C59.0477 24.7693 58.9479 24.0179 58.5819 23.3803C59.4469 22.9893 60.5476 22.2907 60.2454 20.9211ZM54.2402 6.86742C53.5748 6.75097 52.8706 6.6983 52.1415 6.70384C51.9335 6.17153 51.4178 5.7917 50.8134 5.79447C50.5501 5.79724 50.3089 5.8721 50.0982 5.99963C48.2517 4.47478 45.9006 3.26043 43.0949 2.41483C48.3543 2.35384 52.1498 3.87315 54.2402 6.86742ZM52.0417 23.103C51.1961 24.7499 50.0898 26.3385 48.7618 27.8079C48.5761 27.7192 48.3681 27.6665 48.1463 27.6665C47.8913 27.6665 47.6556 27.7413 47.4504 27.8606C46.6298 27.1148 45.848 26.3579 45.1133 25.601C46.2139 22.701 46.6409 19.9258 46.7407 17.5692C46.749 17.5692 46.7573 17.5692 46.7656 17.5692C47.1926 17.5664 47.5863 17.4305 47.9107 17.2004C49.4549 18.2789 50.8107 19.6152 51.9668 21.0403C51.7117 21.2981 51.5537 21.6558 51.5565 22.0467C51.5592 22.4709 51.7505 22.8424 52.0417 23.103ZM48.5012 16.5461C48.6648 16.255 48.7591 15.9195 48.7563 15.5619C48.7507 14.4584 47.8497 13.5657 46.7462 13.5713C46.7019 13.5713 46.6575 13.5768 46.6132 13.5796C46.4551 12.1434 46.1779 10.7433 45.8036 9.44582C46.0448 9.29056 46.2444 9.07985 46.383 8.82755C46.4496 8.79983 46.5189 8.77488 46.5882 8.74715C49.5742 9.41532 52.5878 11.0039 53.8715 14.6608C53.8909 14.8632 53.9048 15.0684 53.9131 15.2763C53.9879 17.059 53.6968 18.8667 53.098 20.6355C53.0564 20.6327 53.0148 20.6244 52.9732 20.6244C52.9039 20.6244 52.8374 20.6355 52.7708 20.6466C51.5592 19.1301 50.1342 17.7022 48.5012 16.5461ZM48.0826 8.22316C48.5733 8.07899 49.0668 7.957 49.5603 7.86273C49.7987 8.32296 50.2728 8.63903 50.8273 8.63625C51.0352 8.63625 51.2293 8.58912 51.4068 8.50872C52.1553 9.4375 52.7459 10.4522 53.1645 11.5473C51.8032 9.83673 49.9762 8.82201 48.0826 8.22316ZM42.3879 3.12736C45.2907 3.94246 47.6861 5.12353 49.5298 6.62899C49.4799 6.73988 49.4438 6.8591 49.4217 6.98386C48.4763 7.16684 47.5225 7.44132 46.5854 7.79897C46.4884 6.93673 45.7537 6.26856 44.8665 6.27411C44.7833 6.27411 44.7002 6.28243 44.6225 6.29352C43.9682 4.94332 43.203 3.84265 42.3879 3.12736ZM44.6114 9.69534C44.7002 9.7092 44.7916 9.71752 44.8831 9.71752C44.9109 9.71752 44.9414 9.71475 44.9691 9.71197C45.3267 10.9596 45.6012 12.3458 45.7537 13.8402C45.4238 14.0343 45.1521 14.317 44.9774 14.6608C43.6688 14.1757 42.2659 13.8845 40.7743 13.843C40.7328 13.6433 40.6607 13.4576 40.5636 13.2857C41.5479 11.8412 42.9757 10.6269 44.6114 9.69534ZM39.474 16.1496C40.1117 15.9279 40.6024 15.3928 40.7605 14.7274C42.18 14.7662 43.5163 15.0518 44.7611 15.5203C44.7611 15.5397 44.7584 15.5619 44.7584 15.5813C44.7611 16.3631 45.2131 17.0341 45.8674 17.3612C45.7897 19.5653 45.4127 22.1604 44.4368 24.8857C41.4619 21.6807 39.4602 18.534 39.474 16.1496ZM44.7445 26.5131C45.4155 27.1896 46.1197 27.8606 46.8516 28.5232C46.7767 28.6978 46.7324 28.8919 46.7324 29.0943C46.7324 29.3078 46.7851 29.5074 46.871 29.6904C44.7279 31.6145 42.1883 33.253 39.3798 34.459C41.9194 31.8779 43.6217 29.1581 44.7445 26.5131ZM48.7258 33.2946C48.0022 34.1624 47.6112 35.3629 47.5669 36.7851C47.0429 36.8406 46.5938 37.1428 46.3359 37.5753L39.1413 35.6678C39.158 35.6124 39.1718 35.5569 39.1829 35.5015C42.3047 34.2372 45.1216 32.449 47.4754 30.3281C47.6806 30.4417 47.9134 30.511 48.1657 30.511C48.4347 30.5083 48.6814 30.4306 48.8949 30.2976C49.5852 30.8715 50.2839 31.4343 50.9909 31.9777C50.1037 32.1357 49.3163 32.5876 48.7258 33.2946ZM56.1089 31.0295C55.4989 31.8418 53.9519 31.9111 52.3577 31.9111C51.3763 31.1764 50.4087 30.4085 49.4716 29.6239C49.5409 29.4575 49.5769 29.2745 49.5769 29.0805C49.5769 28.8365 49.5076 28.6091 49.3967 28.4067C50.794 26.8597 51.9585 25.1879 52.8457 23.4496C52.8928 23.4551 52.9399 23.4634 52.9871 23.4634C53.2116 23.4634 53.4196 23.4052 53.6081 23.3109C54.7809 25.1269 55.6403 26.9262 56.1643 28.3735C56.5275 29.6044 56.5081 30.4972 56.1089 31.0295ZM57.7363 22.7675C57.6005 22.8202 57.5007 22.9367 57.4674 23.0781C57.4341 23.2194 57.4729 23.3692 57.57 23.4745C57.972 23.9181 58.1383 24.4782 58.0468 25.0659L56.9517 25.4374C56.802 25.4873 56.6911 25.6149 56.6606 25.7701C56.6301 25.9254 56.6855 26.0834 56.8048 26.1888C57.2012 26.5326 57.3897 26.8708 57.3315 27.1369C57.2899 27.331 57.1125 27.514 56.838 27.6582C56.2697 26.1943 55.3991 24.4393 54.243 22.6788C54.34 22.4847 54.401 22.2685 54.401 22.0356C54.3983 21.6086 54.2042 21.2316 53.9048 20.971C54.5563 19.0802 54.8751 17.145 54.7947 15.2375C54.7836 14.9991 54.767 14.7662 54.7448 14.5333C54.7448 14.5167 54.742 14.5028 54.7393 14.4862C54.4953 12.027 53.5721 9.8201 52.0361 7.94036C52.0999 7.83224 52.1498 7.71579 52.1831 7.59103C53.1396 7.58549 54.0489 7.68807 54.8696 7.91541C54.9916 8.15384 55.108 8.39782 55.2106 8.65289C56.7133 11.7996 56.5552 12.6452 55.8788 16.2079L55.8649 16.28C55.8427 16.4019 55.8704 16.5295 55.9453 16.6265L59.397 21.2039C59.4968 21.8415 59.0449 22.2602 57.7363 22.7675Z" fill="white"/>
<path fill-rule="evenodd" clip-rule="evenodd" d="M38.1829 27.1067C39.2032 27.1011 40.0239 26.2694 40.0183 25.2519C40.0128 24.2316 39.181 23.411 38.1635 23.4165C37.1433 23.4221 36.3226 24.2538 36.3282 25.2713C36.3337 26.2888 37.1654 27.1122 38.1829 27.1067Z" fill="white"/>
<path fill-rule="evenodd" clip-rule="evenodd" d="M33.8164 30.5811C33.822 31.4849 34.5567 32.2113 35.4605 32.2085C36.3643 32.203 37.0907 31.4683 37.088 30.5645C37.0824 29.6606 36.3477 28.9342 35.4439 28.937C34.5401 28.9426 33.8109 29.6773 33.8164 30.5811Z" fill="white"/>
<path fill-rule="evenodd" clip-rule="evenodd" d="M32.5803 20.1748C31.4546 20.1804 30.5453 21.0981 30.5508 22.2265C30.5564 23.3521 31.474 24.2615 32.6024 24.2559C33.7281 24.2504 34.6374 23.3327 34.6319 22.2043C34.6236 21.0787 33.7059 20.1693 32.5803 20.1748Z" fill="white"/>
<path fill-rule="evenodd" clip-rule="evenodd" d="M27.9854 17.9571C27.9799 16.8066 27.0428 15.8778 25.8922 15.8833C24.7416 15.8889 23.8128 16.826 23.8184 17.9765C23.8239 19.1271 24.761 20.0559 25.9116 20.0503C27.0622 20.0448 27.991 19.1077 27.9854 17.9571Z" fill="white"/>
<path fill-rule="evenodd" clip-rule="evenodd" d="M31.748 16.4741C32.8375 16.4685 33.7164 15.5813 33.7109 14.4917C33.7053 13.4022 32.8181 12.5233 31.7286 12.5288C30.639 12.5344 29.7601 13.4216 29.7657 14.5112C29.7712 15.6007 30.6584 16.4796 31.748 16.4741Z" fill="white"/>
<path d="M25.1761 12.7839C26.7609 12.7839 28.0457 11.4992 28.0457 9.91443C28.0457 8.32964 26.7609 7.04492 25.1761 7.04492C23.5914 7.04492 22.3066 8.32964 22.3066 9.91443C22.3066 11.4992 23.5914 12.7839 25.1761 12.7839Z" fill="white"/>
<path d="M24.6745 37.2371C27.3694 37.2371 29.554 35.0525 29.554 32.3576C29.554 29.6627 27.3694 27.478 24.6745 27.478C21.9796 27.478 19.7949 29.6627 19.7949 32.3576C19.7949 35.0525 21.9796 37.2371 24.6745 37.2371Z" fill="white"/>
</svg>
